<svg width="13" height="8" viewBox="0 0 13 8" fill="none" xmlns="http://www.w3.org/2000/svg">
<path d="M0.28615 7.19688C0.469427 7.3801 0.717971 7.48303 0.977125 7.48303C1.23628 7.48303 1.48482 7.3801 1.6681 7.19688L6.5059 2.35908L11.3437 7.19688C11.528 7.37491 11.7749 7.47342 12.0312 7.47119C12.2874 7.46897 12.5325 7.36618 12.7137 7.18498C12.895 7.00377 12.9977 6.75864 13 6.50239C13.0022 6.24614 12.9037 5.99926 12.7257 5.81493L7.19688 0.286157C7.0136 0.102936 6.76505 7.15256e-06 6.5059 7.15256e-06C6.24675 7.15256e-06 5.9982 0.102936 5.81493 0.286157L0.28615 5.81493C0.102928 5.99821 0 6.24675 0 6.50591C0 6.76506 0.102928 7.01361 0.28615 7.19688Z" fill="white"/>
</svg>
