<svg width="14" height="17" viewBox="0 0 14 17" fill="none" xmlns="http://www.w3.org/2000/svg">
<path d="M3.86188 16.3014C0.509727 14.419 -0.372825 12.6373 0.131755 10.204C0.504259 8.40712 1.724 6.94523 1.84096 5.15184C2.36199 6.09656 2.57971 6.77778 2.63793 7.76501C4.29509 5.74209 5.39017 2.94166 5.45501 0C5.45501 0 9.77131 2.52685 10.0545 6.34368C10.4261 5.55696 10.6132 4.30747 10.2416 3.49768C11.3563 4.30751 17.8808 11.4967 9.35783 16.3014C10.9602 13.1927 9.77123 8.99821 6.98902 7.06096C7.17482 7.89395 6.84906 11.0007 5.61819 12.3659C5.95924 10.0849 5.29369 9.12033 5.29369 9.12033C5.29369 9.12033 5.06526 10.398 4.17898 11.6887C3.36964 12.8673 2.80886 14.1182 3.86188 16.3014Z" fill="#5CFDD6"/>
</svg>
