<svg width="15" height="14" viewBox="0 0 15 14" fill="none" xmlns="http://www.w3.org/2000/svg">
<path d="M8.11963 7.63567C8.61689 7.63567 9.09378 7.83679 9.44539 8.19478C9.79701 8.55277 9.99455 9.03831 9.99455 9.54459L9.9933 10.4971C10.122 12.8343 8.354 14 5.07477 14C1.80679 14 0 12.8496 0 10.5302V9.54459C0 9.03831 0.197535 8.55277 0.54915 8.19478C0.900765 7.83679 1.37766 7.63567 1.87491 7.63567H8.11963V7.63567ZM13.1194 7.63567C13.6167 7.63567 14.0936 7.83679 14.4452 8.19478C14.7968 8.55277 14.9943 9.03831 14.9943 9.54459V10.2146C15.1068 12.3112 13.5444 13.3624 10.6889 13.3624C10.3014 13.3624 9.93705 13.3433 9.59644 13.3052C10.2677 12.6739 10.6264 11.8181 10.6251 10.7364L10.617 10.4615L10.6195 9.54459C10.6199 9.18338 10.5445 8.82626 10.3985 8.49707C10.2524 8.16788 10.0391 7.87421 9.77268 7.63567H13.12H13.1194ZM4.99977 0C5.8287 0 6.62368 0.335263 7.20982 0.932034C7.79596 1.52881 8.12526 2.3382 8.12526 3.18217C8.12526 4.02613 7.79596 4.83552 7.20982 5.4323C6.62368 6.02907 5.8287 6.36433 4.99977 6.36433C4.17084 6.36433 3.37586 6.02907 2.78972 5.4323C2.20358 4.83552 1.87429 4.02613 1.87429 3.18217C1.87429 2.3382 2.20358 1.52881 2.78972 0.932034C3.37586 0.335263 4.17084 0 4.99977 0V0ZM11.2495 1.27261C11.9125 1.27261 12.5484 1.54077 13.0172 2.01809C13.486 2.49541 13.7494 3.1428 13.7494 3.81783C13.7494 4.49287 13.486 5.14026 13.0172 5.61758C12.5484 6.0949 11.9125 6.36306 11.2495 6.36306C10.5865 6.36306 9.95062 6.0949 9.4818 5.61758C9.01298 5.14026 8.7496 4.49287 8.7496 3.81783C8.7496 3.1428 9.01298 2.49541 9.4818 2.01809C9.95062 1.54077 10.5865 1.27261 11.2495 1.27261Z" fill="#5cfdd6"/>
</svg>