<svg width="20" height="21" viewBox="0 0 20 21" fill="none" xmlns="http://www.w3.org/2000/svg">
<path d="M19 9.59601L10.49 18.3291C9.44748 19.399 8.03349 20 6.55912 20C5.08475 20 3.67077 19.399 2.62823 18.3291C1.58569 17.2592 1 15.8082 1 14.2951C1 12.7821 1.58569 11.3311 2.62823 10.2612L10.5641 2.1173C11.2591 1.4028 12.2023 1.00089 13.186 1C14.1698 0.99911 15.1137 1.39931 15.8099 2.11255C16.5062 2.8258 16.8978 3.79366 16.8987 4.80324C16.8995 5.81281 16.5096 6.78138 15.8145 7.49589L7.86016 15.6398C7.51265 15.9964 7.04132 16.1968 6.54986 16.1968C6.0584 16.1968 5.58708 15.9964 5.23956 15.6398C4.89205 15.2832 4.69682 14.7995 4.69682 14.2951C4.69682 13.7908 4.89205 13.3071 5.23956 12.9505L13.1013 4.89212" stroke="white" stroke-width="2" stroke-linecap="round" stroke-linejoin="round"/>
</svg>
