<svg width="21" height="21" viewBox="0 0 21 21" fill="none" xmlns="http://www.w3.org/2000/svg">
<path d="M9.37502 10.5C9.37502 10.7984 9.49354 11.0845 9.70452 11.2955C9.91549 11.5065 10.2016 11.625 10.5 11.625C10.7984 11.625 11.0845 11.5065 11.2955 11.2955C11.5065 11.0845 11.625 10.7984 11.625 10.5C11.625 10.2016 11.5065 9.91548 11.2955 9.7045C11.0845 9.49353 10.7984 9.375 10.5 9.375C10.2016 9.375 9.91549 9.49353 9.70452 9.7045C9.49354 9.91548 9.37502 10.2016 9.37502 10.5V10.5ZM14.0625 10.5C14.0625 10.7984 14.181 11.0845 14.392 11.2955C14.6029 11.5065 14.8891 11.625 15.1874 11.625C15.4858 11.625 15.772 11.5065 15.9829 11.2955C16.1939 11.0845 16.3124 10.7984 16.3124 10.5C16.3124 10.2016 16.1939 9.91548 15.9829 9.7045C15.772 9.49353 15.4858 9.375 15.1874 9.375C14.8891 9.375 14.6029 9.49353 14.392 9.7045C14.181 9.91548 14.0625 10.2016 14.0625 10.5ZM4.68757 10.5C4.68757 10.7984 4.8061 11.0845 5.01707 11.2955C5.22805 11.5065 5.5142 11.625 5.81256 11.625C6.11092 11.625 6.39707 11.5065 6.60805 11.2955C6.81902 11.0845 6.93755 10.7984 6.93755 10.5C6.93755 10.2016 6.81902 9.91548 6.60805 9.7045C6.39707 9.49353 6.11092 9.375 5.81256 9.375C5.5142 9.375 5.22805 9.49353 5.01707 9.7045C4.8061 9.91548 4.68757 10.2016 4.68757 10.5V10.5ZM20.1843 6.43125C19.6546 5.17266 18.8952 4.04297 17.9273 3.07266C16.9661 2.10796 15.825 1.34114 14.5687 0.815625C13.2797 0.274219 11.9109 0 10.5 0H10.4531C9.03283 0.00703125 7.65707 0.288281 6.36333 0.841406C5.11778 1.37232 3.98742 2.14049 3.03525 3.10312C2.07667 4.07109 1.32434 5.19609 0.804029 6.45C0.264973 7.74844 -0.0068982 9.12891 0.000132966 10.5492C0.0080858 12.1769 0.393156 13.7806 1.12512 15.2344V18.7969C1.12512 19.0828 1.23871 19.357 1.44089 19.5592C1.64308 19.7614 1.9173 19.875 2.20323 19.875H5.76803C7.22183 20.607 8.82548 20.992 10.4531 21H10.5023C11.9062 21 13.2679 20.7281 14.55 20.1961C15.7999 19.6768 16.9367 18.919 17.8968 17.9648C18.8647 17.0062 19.6264 15.8859 20.1585 14.6367C20.7116 13.343 20.9928 11.9672 20.9999 10.5469C21.0069 9.11953 20.7303 7.73437 20.1843 6.43125V6.43125ZM16.6429 16.6969C14.9999 18.3234 12.8203 19.2188 10.5 19.2188H10.4602C9.04689 19.2117 7.64301 18.8602 6.40318 18.1992L6.2063 18.0938H2.90635V14.7938L2.80088 14.5969C2.13995 13.357 1.78839 11.9531 1.78136 10.5398C1.77199 8.20313 2.66494 6.00937 4.3032 4.35703C5.93912 2.70469 8.12581 1.79063 10.4625 1.78125H10.5023C11.6742 1.78125 12.8109 2.00859 13.882 2.45859C14.9273 2.89687 15.8648 3.52734 16.671 4.33359C17.4749 5.1375 18.1077 6.07734 18.546 7.12266C19.0007 8.20547 19.228 9.35391 19.2233 10.5398C19.2093 12.8742 18.2929 15.0609 16.6429 16.6969V16.6969Z" fill="white"/>
</svg>
