<svg width="23" height="21" viewBox="0 0 23 21" fill="none" xmlns="http://www.w3.org/2000/svg">
<path d="M12.4895 10.7124L4.04495 12.0636C3.94786 12.0791 3.85676 12.119 3.78079 12.1791C3.70482 12.2392 3.64667 12.3174 3.61218 12.4059L0.700545 19.8972C0.422499 20.5862 1.17255 21.243 1.86094 20.9114L22.0417 11.2216C22.1812 11.1545 22.2985 11.0514 22.3804 10.9239C22.4624 10.7965 22.5058 10.6496 22.5058 10.4998C22.5058 10.3499 22.4624 10.2031 22.3804 10.0756C22.2985 9.94808 22.1812 9.84501 22.0417 9.77787L1.86094 0.0881315C1.17255 -0.242396 0.422499 0.414353 0.700545 1.10232L3.6133 8.59357C3.64779 8.6821 3.70594 8.76035 3.78191 8.82045C3.85788 8.88055 3.94898 8.92038 4.04607 8.93594L12.4906 10.2871C12.5433 10.2952 12.5912 10.321 12.6259 10.36C12.6605 10.399 12.6795 10.4485 12.6795 10.4998C12.6795 10.551 12.6605 10.6005 12.6259 10.6395C12.5912 10.6785 12.5433 10.7043 12.4906 10.7124H12.4895Z" fill="#313131"/>
</svg>
