<svg width="21" height="21" viewBox="0 0 21 21" fill="none" xmlns="http://www.w3.org/2000/svg">
<path fill-rule="evenodd" clip-rule="evenodd" d="M4.65135 1.81359C5.79357 1.03585 7.07829 0.49223 8.43142 0.214079C9.78454 -0.0640718 11.1793 -0.0712443 12.5352 0.192975C13.8911 0.457194 15.1813 0.987576 16.3315 1.75353C17.4816 2.51947 18.4689 3.50583 19.2364 4.6557C20.0038 5.80557 20.5363 7.09619 20.803 8.45312C21.0698 9.81005 21.0655 11.2064 20.7906 12.5617C20.5156 13.917 19.9753 15.2043 19.2008 16.3495C18.4264 17.4947 17.4331 18.475 16.2783 19.2339C13.9709 20.7777 11.1455 21.3407 8.42351 20.7988C5.70155 20.257 3.30607 18.6548 1.76404 16.3447C0.222005 14.0347 -0.340259 11.2059 0.200936 8.4808C0.742132 5.75568 2.34246 3.35741 4.64985 1.81359H4.65135ZM5.48249 17.9902C6.46171 18.6527 7.56204 19.1148 8.72024 19.3501C9.87843 19.5854 11.0717 19.5892 12.2313 19.3614C13.391 19.1335 14.4943 18.6784 15.4777 18.0223C16.4612 17.3662 17.3054 16.5219 17.9619 15.5381C18.6184 14.5543 19.0742 13.4503 19.3032 12.2895C19.5321 11.1288 19.5297 9.93415 19.296 8.77434C19.0623 7.61453 18.602 6.51239 17.9415 5.53126C17.281 4.55013 16.4333 3.70935 15.4472 3.05726C13.4691 1.7492 11.0542 1.27836 8.73044 1.74766C6.40663 2.21696 4.36291 3.58822 3.04602 5.5617C1.72912 7.53519 1.24617 9.95036 1.70273 12.2793C2.15929 14.6082 3.51823 16.6615 5.48249 17.9902ZM8.22256 9.02716C8.22256 9.42408 8.06506 9.80475 7.78472 10.0854C7.50438 10.3661 7.12416 10.5238 6.7277 10.5238C6.33124 10.5238 5.95102 10.3661 5.67068 10.0854C5.39034 9.80475 5.23285 9.42408 5.23285 9.02716C5.23285 8.63024 5.39034 8.24958 5.67068 7.96891C5.95102 7.68825 6.33124 7.53057 6.7277 7.53057C7.12416 7.53057 7.50438 7.68825 7.78472 7.96891C8.06506 8.24958 8.22256 8.63024 8.22256 9.02716ZM15.6968 9.02716C15.6968 9.42408 15.5393 9.80475 15.259 10.0854C14.9787 10.3661 14.5984 10.5238 14.202 10.5238C13.8055 10.5238 13.4253 10.3661 13.145 10.0854C12.8646 9.80475 12.7071 9.42408 12.7071 9.02716C12.7071 8.63024 12.8646 8.24958 13.145 7.96891C13.4253 7.68825 13.8055 7.53057 14.202 7.53057C14.5984 7.53057 14.9787 7.68825 15.259 7.96891C15.5393 8.24958 15.6968 8.63024 15.6968 9.02716ZM10.4648 15.0135C9.65255 15.0155 8.85497 14.7966 8.15727 14.3801C7.45957 13.9637 6.88796 13.3653 6.50347 12.6489L5.20295 13.3673C5.72637 14.337 6.50706 15.1433 7.45897 15.6971C8.41089 16.251 9.49706 16.5309 10.5978 16.5062C11.6985 16.4814 12.771 16.1529 13.6971 15.5568C14.6232 14.9607 15.3669 14.1201 15.8463 13.1278L14.5009 12.4843C14.1332 13.2427 13.5597 13.8822 12.8459 14.3295C12.1321 14.7768 11.3069 15.0138 10.4648 15.0135Z" fill="white"/>
</svg>
